<svg id="Layer_1" data-name="Layer 1" xmlns="http://www.w3.org/2000/svg" xmlns:xlink="http://www.w3.org/1999/xlink" viewBox="0 0 288.54 144.98"><defs><style>.cls-1{fill:none;}.cls-2{fill:#d7e8b9;}.cls-3{fill:#83ccd2;}.cls-4{fill:#98ce98;}.cls-5{fill:#9fd5f4;}.cls-6{fill:#005fad;}.cls-7{fill:#21aee5;}.cls-8{fill:#003994;}.cls-9{fill:#0081cc;}.cls-10{fill:#d00d3c;}.cls-11{fill:#e73656;}.cls-12{clip-path:url(#clip-path);}</style><clipPath id="clip-path" transform="translate(0 0)"><rect class="cls-1" width="288.53" height="144.98"/></clipPath></defs><title>main-logo</title><polygon class="cls-2" points="243.85 0 243.85 17.12 258.75 8.56 243.85 0"/><polygon class="cls-2" points="243.85 17.12 258.75 25.68 243.85 34.23 243.85 17.12"/><polygon class="cls-2" points="243.85 34.23 258.75 42.8 243.85 51.36 243.85 34.23"/><polygon class="cls-3" points="258.75 42.8 243.85 34.23 258.75 25.68 258.75 42.8"/><polygon class="cls-4" points="258.75 25.68 243.85 17.12 258.75 8.56 258.75 25.68"/><polygon class="cls-2" points="258.75 8.56 273.64 17.12 258.75 25.68 258.75 8.56"/><polygon class="cls-2" points="258.75 25.68 273.64 34.23 258.75 42.8 258.75 25.68"/><polygon class="cls-4" points="273.64 34.23 258.75 25.68 273.64 17.12 273.64 34.23"/><polygon class="cls-2" points="273.64 34.23 288.54 25.68 273.64 17.12 273.64 34.23"/><polygon class="cls-3" points="243.85 34.23 228.96 25.68 243.85 17.12 243.85 34.23"/><polygon class="cls-4" points="243.85 0 228.96 8.56 243.85 17.12 243.85 0"/><polygon class="cls-2" points="228.96 8.56 243.85 17.12 228.96 25.68 228.96 8.56"/><polygon class="cls-5" points="228.96 42.8 243.85 51.36 243.85 34.23 228.96 42.8"/><polygon class="cls-2" points="228.96 25.68 228.96 42.8 243.85 34.23 228.96 25.68"/><polygon class="cls-5" points="228.96 42.8 214.07 34.23 228.96 25.68 228.96 42.8"/><polygon class="cls-3" points="228.96 25.68 214.07 17.12 228.96 8.56 228.96 25.68"/><polygon class="cls-2" points="214.07 17.12 228.96 25.68 214.07 34.23 214.07 17.12"/><polygon class="cls-5" points="199.17 25.68 214.07 34.23 214.07 17.12 199.17 25.68"/><polygon class="cls-5" points="243.85 68.47 228.96 59.91 243.85 51.36 243.85 68.47"/><polygon class="cls-6" points="228.96 42.8 243.85 51.36 228.96 59.91 228.96 42.8"/><polygon class="cls-6" points="228.96 94.15 214.07 85.59 228.96 77.04 228.96 94.15"/><polygon class="cls-7" points="214.07 34.23 214.07 51.36 228.96 59.91 228.96 42.8 214.07 34.23"/><polygon class="cls-8" points="214.07 51.36 214.07 85.59 228.96 77.04 228.96 59.91 214.07 51.36"/><polygon class="cls-5" points="214.07 51.36 199.17 42.8 214.07 34.23 214.07 51.36"/><polygon class="cls-7" points="199.17 25.68 199.17 42.8 214.07 34.23 199.17 25.68"/><polygon class="cls-7" points="199.17 42.8 199.17 77.04 214.07 85.59 214.07 51.36 199.17 42.8"/><polygon class="cls-7" points="228.96 59.91 228.96 94.15 243.85 102.72 243.85 68.47 228.96 59.91"/><polygon class="cls-6" points="258.75 59.91 273.64 68.47 258.75 77.04 258.75 59.91"/><polygon class="cls-8" points="273.64 68.47 258.75 59.91 273.64 51.36 273.64 68.47"/><path class="cls-9" d="M258.75,59.92l14.89-8.56,0,17.14L258.75,77Zm-14.9-8.56v51.36L288.54,77V25.68Z" transform="translate(0 0)"/><polygon class="cls-10" points="145.09 95.8 140.18 90.89 145.09 90.89 145.09 95.8"/><polygon class="cls-10" points="145.09 125.31 140.18 120.39 145.09 120.39 145.09 125.31"/><polygon class="cls-10" points="164.76 105.64 159.84 100.72 164.76 100.72 164.76 105.64"/><polygon class="cls-11" points="150.01 85.97 150.01 81.05 140.18 81.05 140.18 90.89 145.09 90.89 145.09 85.97 150.01 85.97"/><rect class="cls-11" x="140.18" y="110.55" width="4.91" height="9.83"/><rect class="cls-11" x="145.09" y="120.39" width="9.84" height="4.92"/><rect class="cls-11" x="140.18" y="100.72" width="9.84" height="4.92"/><rect class="cls-11" x="150.01" y="105.64" width="4.91" height="4.92"/><polygon class="cls-11" points="150.01 85.97 150.01 90.89 145.09 90.89 145.09 95.8 154.92 95.8 154.92 85.97 150.01 85.97"/><polygon class="cls-10" points="179.51 85.97 184.43 81.05 184.43 85.97 179.51 85.97"/><polygon class="cls-10" points="164.76 81.05 159.84 76.13 164.76 76.13 164.76 81.05"/><polygon class="cls-10" points="154.92 85.97 150.01 85.97 150.01 81.05 154.92 85.97"/><polygon class="cls-10" points="164.76 90.89 164.76 95.8 159.84 95.8 164.76 90.89"/><polygon class="cls-10" points="154.92 105.64 150.01 105.64 150.01 100.72 154.92 105.64"/><rect class="cls-11" x="164.76" y="100.72" width="9.83" height="4.92"/><rect class="cls-11" x="159.84" y="95.8" width="4.92" height="4.92"/><rect class="cls-11" x="179.51" y="85.97" width="4.92" height="19.67"/><rect class="cls-11" x="184.43" y="81.05" width="4.92" height="4.92"/><rect class="cls-11" x="159.84" y="71.21" width="4.92" height="4.92"/><g class="cls-12"><path class="cls-11" d="M159.84,88.42V95.8l4.92-4.91V88.42a2.46,2.46,0,1,1,2.46,2.47h-2.46V95.8h2.46a7.38,7.38,0,1,0-7.38-7.38" transform="translate(0 0)"/><rect class="cls-11" x="164.76" y="76.13" width="9.83" height="4.92"/><polygon class="cls-9" points="120.5 135.14 115.58 130.23 120.5 130.23 120.5 135.14"/><polygon class="cls-9" points="115.58 125.31 120.5 120.39 120.5 125.31 115.58 125.31"/><polygon class="cls-9" points="86.08 85.97 91 81.05 91 85.97 86.08 85.97"/><polygon class="cls-9" points="100.83 85.97 95.92 81.05 95.92 85.97 100.83 85.97"/><polygon class="cls-9" points="68.45 81.05 75.4 81.05 71.92 84.53 68.45 81.05"/><polygon class="cls-9" points="130.34 115.47 125.42 115.47 125.42 110.55 130.34 115.47"/><polygon class="cls-9" points="130.34 120.39 125.42 120.39 125.42 125.31 130.34 120.39"/><polygon class="cls-9" points="110.67 105.63 105.75 100.72 110.67 100.72 110.67 105.63"/><polygon class="cls-9" points="125.42 85.97 130.34 81.05 130.34 85.97 125.42 85.97"/><polygon class="cls-9" points="110.67 81.05 105.75 76.13 110.67 76.13 110.67 81.05"/><polygon class="cls-9" points="110.67 90.88 110.67 95.8 105.75 95.8 110.67 90.88"/><rect class="cls-7" x="115.58" y="125.3" width="4.92" height="4.92"/><rect class="cls-7" x="120.5" y="130.23" width="9.84" height="4.91"/><rect class="cls-7" x="115.58" y="110.55" width="9.84" height="4.92"/><rect class="cls-7" x="120.5" y="120.39" width="4.92" height="4.92"/><rect class="cls-7" x="125.42" y="115.47" width="4.92" height="4.92"/><polygon class="cls-7" points="120.5 105.63 120.5 100.72 110.67 100.72 110.67 95.8 105.75 95.8 105.75 100.72 110.67 100.72 110.67 105.63 120.5 105.63"/><rect class="cls-7" x="125.42" y="85.97" width="4.92" height="19.66"/><rect class="cls-7" x="130.34" y="81.05" width="4.92" height="4.92"/><rect class="cls-7" x="105.75" y="71.21" width="4.92" height="4.92"/><path class="cls-7" d="M113.13,81.05a7.38,7.38,0,0,0-7.38,7.37h0V95.8l4.92-4.91h0V88.42a2.46,2.46,0,1,1,2.46,2.46h-2.46V95.8h2.46a7.38,7.38,0,0,0,0-14.75" transform="translate(0 0)"/><rect class="cls-7" x="110.67" y="76.13" width="9.84" height="4.92"/><rect class="cls-7" y="81.05" width="9.84" height="4.92"/><rect class="cls-7" x="86.08" y="85.97" width="4.91" height="9.83"/><rect class="cls-7" x="23.48" y="85.97" width="4.91" height="9.83"/><rect class="cls-7" x="9.86" y="85.97" width="4.91" height="9.83"/><rect class="cls-7" x="95.92" y="85.97" width="4.91" height="9.83"/><rect class="cls-7" x="91" y="81.05" width="4.92" height="4.92"/><polygon class="cls-7" points="61.49 88.01 64.98 91.48 71.92 84.53 68.45 81.05 61.49 88.01"/><rect class="cls-7" x="74.68" y="81.35" width="4.92" height="9.83" transform="translate(-38.4 79.83) rotate(-45.01)"/><polygon class="cls-9" points="9.84 81.05 14.76 85.97 9.84 85.97 9.84 81.05"/><path class="cls-7" d="M93.46,100.72a7.38,7.38,0,1,0,7.37,7.38,7.37,7.37,0,0,0-7.37-7.38m0,9.83a2.46,2.46,0,1,1,2.46-2.45,2.46,2.46,0,0,1-2.46,2.45" transform="translate(0 0)"/><path class="cls-7" d="M23.07,100.72a7.38,7.38,0,1,0,7.38,7.38,7.37,7.37,0,0,0-7.38-7.38m0,9.83a2.46,2.46,0,1,1,2.45-2.45,2.46,2.46,0,0,1-2.45,2.45" transform="translate(0 0)"/><polygon class="cls-9" points="189.34 144.98 184.43 140.06 189.34 140.06 189.34 144.98"/><polygon class="cls-9" points="209.02 135.14 204.1 130.23 209.02 130.23 209.02 135.14"/><polygon class="cls-9" points="204.1 115.47 209.02 110.56 209.02 115.47 204.1 115.47"/><polygon class="cls-9" points="189.34 115.47 184.43 110.55 184.43 115.47 189.34 115.47"/><polygon class="cls-9" points="233.6 115.47 228.69 110.55 228.69 115.47 233.6 115.47"/><polygon class="cls-9" points="166.8 110.56 173.76 110.56 170.28 114.03 166.8 110.56"/><polygon class="cls-7" points="228.68 115.38 228.68 144.89 233.61 144.98 233.61 115.47 228.68 115.38"/><rect class="cls-7" x="209.02" y="110.55" width="9.83" height="4.92"/><polygon class="cls-7" points="204.1 115.47 204.1 130.23 209.02 130.23 209.02 125.31 218.85 125.31 218.85 120.39 209.02 120.39 209.02 115.47 204.1 115.47"/><rect class="cls-7" x="209.02" y="130.23" width="9.83" height="4.91"/><rect class="cls-7" x="223.77" y="110.55" width="4.92" height="4.92"/><polygon class="cls-9" points="28.4 85.97 23.48 81.05 23.48 85.97 28.4 85.97"/><rect class="cls-7" x="18.56" y="81.05" width="4.92" height="4.92"/><rect class="cls-7" x="18.56" y="88.43" width="4.92" height="4.92"/><rect class="cls-7" x="184.43" y="130.23" width="4.92" height="9.83"/><rect class="cls-7" x="189.35" y="140.06" width="9.84" height="4.92"/><polygon class="cls-7" points="184.43 125.31 189.34 125.31 189.34 115.47 184.43 115.47 184.43 110.55 179.51 110.55 179.51 115.47 184.43 115.47 184.43 125.31"/><rect class="cls-7" x="160.14" y="113.31" width="9.84" height="4.92" transform="translate(-33.49 150.77) rotate(-45.04)"/><rect class="cls-7" x="173.03" y="110.85" width="4.92" height="9.83" transform="translate(-30.47 157.94) rotate(-44.98)"/><rect class="cls-7" x="52.9" y="81.05" width="4.91" height="14.75"/><rect class="cls-7" x="194.27" y="110.55" width="4.91" height="14.75"/><rect class="cls-7" x="32.29" y="81.05" width="9.84" height="4.92"/><rect class="cls-7" x="42.16" y="85.97" width="4.91" height="9.84"/><polygon class="cls-9" points="42.14 81.05 47.05 85.97 42.13 85.97 42.14 81.05"/></g></svg>