<svg xmlns="http://www.w3.org/2000/svg" viewBox="0 0 339.13 236.28"><defs><style>.cls-1{fill:#ef9d89;}.cls-1,.cls-10,.cls-2,.cls-3,.cls-4,.cls-5,.cls-6,.cls-9{stroke:#000;stroke-width:1.3px;}.cls-1,.cls-10,.cls-2,.cls-3,.cls-4,.cls-5,.cls-6,.cls-8,.cls-9{stroke-linecap:round;stroke-linejoin:round;}.cls-2,.cls-8{fill:none;}.cls-11,.cls-3{fill:#fff;}.cls-4{fill:#59382e;}.cls-5,.cls-7{fill:#134aa9;}.cls-6{fill:#a77b52;}.cls-8{stroke:#73fff8;stroke-width:1.1px;}.cls-9{fill:#dbdbdb;}.cls-10{fill:#f2f2f2;}.cls-12{fill:#231815;}</style></defs><g id="레이어_2" data-name="레이어 2"><g id="레이어_1-2" data-name="레이어 1"><path class="cls-1" d="M147.44,30.5c-.63-2.16-2-4.49-2-6.74,0-5.05,1.59-9,2.5-14.58a3.51,3.51,0,0,0,0-2,1.79,1.79,0,0,0-1.51-1,3.61,3.61,0,0,0-2.53,1.76,24.38,24.38,0,0,0-3,7.67c-2.44-4.23-5-9.44-7.31-12.62A5.46,5.46,0,0,0,131.05.74a1.46,1.46,0,0,0-1,0c-.86.41-.68,1.67-.35,2.56,1,2.6,2.89,8.24,4,10.78-1.78-3.17-5-9-8.15-10.87A2.34,2.34,0,0,0,123.57,3c-.68.38-.5,1.41-.22,2.14a124.39,124.39,0,0,0,5.73,12c-1.26-3.31-4.79-8.35-8.16-9.44a1.49,1.49,0,0,0-1,.23,1.39,1.39,0,0,0-.3.69A5.23,5.23,0,0,0,120.82,12L126.69,21a32.85,32.85,0,0,0-5.2-3,3.72,3.72,0,0,0-2.67-.56,3.14,3.14,0,0,0-.89.61c-.27.31.22,1.59.41,1.95,1.46,2.69,12.57,12.41,12.78,12.74s5.32,9.65,4.22,9.58"/><path class="cls-2" d="M140.88,15.53a3.93,3.93,0,0,0-1.06,1.29,10,10,0,0,0-1.14,6.49"/><path class="cls-1" d="M308.89,30.5c.63-2.16,2-4.49,2-6.74,0-5.05-1.59-9-2.5-14.58a3.51,3.51,0,0,1,0-2,1.78,1.78,0,0,1,1.5-1,3.61,3.61,0,0,1,2.54,1.76,24.38,24.38,0,0,1,3,7.67c2.44-4.23,5-9.44,7.31-12.62A5.46,5.46,0,0,1,325.28.74a1.46,1.46,0,0,1,1,0c.86.41.68,1.67.35,2.56-1,2.6-2.89,8.24-4,10.78,1.79-3.17,5-9,8.16-10.87A2.34,2.34,0,0,1,332.76,3c.68.38.5,1.41.22,2.14a126.8,126.8,0,0,1-5.73,12c1.26-3.31,4.79-8.35,8.16-9.44a1.49,1.49,0,0,1,1,.23,1.3,1.3,0,0,1,.29.69A5.17,5.17,0,0,1,335.51,12L329.64,21a32.85,32.85,0,0,1,5.2-3,3.72,3.72,0,0,1,2.67-.56,3.14,3.14,0,0,1,.89.61c.26.31-.22,1.59-.41,1.95-1.47,2.69-12.57,12.41-12.78,12.74s-5.32,9.65-4.22,9.58"/><path class="cls-2" d="M315.45,15.53a3.93,3.93,0,0,1,1.06,1.29,10,10,0,0,1,1.14,6.49"/><path class="cls-3" d="M275.34,234.26c-.07-6.75,5.64-95.1,5.64-95.1,7-14,14-28.74,21.59-42.46s25.58-59.92,25.36-60.41a2.78,2.78,0,0,0-1.23-1.09c-5.19-3-12.86-5.52-19.93-8.6-12.46,19.44-51.24,87.86-60.13,90.09-4.22,1.06-8.64,1-13,.89l-1.74,0v-.18l-3.06.09-3.06-.09v.18l-1.73,0c-4.36.1-8.77.17-13-.89-8.89-2.23-47.67-70.65-60.12-90.09-7.08,3.08-14.74,5.6-19.93,8.6a2.68,2.68,0,0,0-1.23,1.09c-.22.49,17.78,46.69,25.35,60.41s14.63,28.42,21.6,42.46c0,0,5.7,88.35,5.63,95.1"/><path class="cls-4" d="M239.3,65.57c2.79-1,5.76-.34,8.48.56a14.16,14.16,0,0,1,6.65,4.54,12.82,12.82,0,0,1,2.63,10.2c-.68,3.64-3,6.72-4.67,10-1.33,2.6-2.28,5.38-3.61,8a30.15,30.15,0,0,1-6.79,8.72,20.85,20.85,0,0,1-6.18,3.92,15.89,15.89,0,0,1-5.44,1.06,2.93,2.93,0,0,1-1.35-.21c-1.14-.57-.22-1.28-.25-2.15-.06-1.33-.26-2.68-.39-4l-.79-8.2"/><path class="cls-4" d="M212.71,103.16a60.11,60.11,0,0,0-3.46-10.37c-1.52-3.49-3.38-6.85-4.55-10.48A21.26,21.26,0,0,1,205.26,68c1.75-4.49,5.73-7.83,10.15-9.76A26.24,26.24,0,0,1,235.5,58,15.16,15.16,0,0,1,242,62.55a17.78,17.78,0,0,1,3.31,7.16"/><path class="cls-1" d="M238.3,109.24c.64.35.64,1.25.57,2a39.07,39.07,0,0,0,.06,8.09,6.25,6.25,0,0,0,.55,2.18,4,4,0,0,0,1.63,1.55A44.55,44.55,0,0,1,231.9,134c-1,.88-.6,4.46-.63,3.1,0-.82-4.52-.76-4.63-.79a.57.57,0,0,1-.26-.2c-3.59-4.14-8.6-7.13-11.18-12a7,7,0,0,0,3.05-4.14,17.83,17.83,0,0,0,.44-5.38"/><path class="cls-1" d="M246.29,101.43s4.44,1.56,6.62-2.35a5.23,5.23,0,0,0-5.75-7.64"/><path class="cls-2" d="M247.07,96.25a19.54,19.54,0,0,1,2.54.08.08.08,0,0,1,.07,0s0,.06,0,0"/><path class="cls-1" d="M210.31,99.67s-4.58,1.12-6.37-3a5.23,5.23,0,0,1,6.47-7"/><path class="cls-2" d="M210,94.44a21.5,21.5,0,0,0-2.53-.17l-.07,0a0,0,0,0,0,0,.06"/><path class="cls-1" d="M216.05,112.69a19,19,0,0,1-6.13-15.46c.09-1.25.2-2.49.3-3.74.08-1,.13-2,.25-2.94a8.74,8.74,0,0,1,1.24-3.13,26.17,26.17,0,0,0,2.47-6.73,21.14,21.14,0,0,1,1.09-4.17,8.67,8.67,0,0,1,3.87-4,11.46,11.46,0,0,1,2.46-.94c.88-.23,1.8-.22,2.68-.42s1.45-.46,2.22-.58c.24,0,2.8-.28,2.79-.25l.13,0a.25.25,0,0,1,.12,0c9.61,1,18,9.25,17.8,19.08l-.17,9.61a18.84,18.84,0,0,1-15.44,18.2,24.05,24.05,0,0,1-4.67.16A18.78,18.78,0,0,1,216.05,112.69Z"/><rect x="233.1" y="89.26" width="2.85" height="4.38" rx="1.43" transform="translate(7.11 -16.47) rotate(4.08)"/><path class="cls-2" d="M229.37,91.21a1.18,1.18,0,0,0-1.53.53,1.79,1.79,0,0,0,.14,1.54c.23.48.56.91.75,1.41"/><path class="cls-2" d="M233.66,85a3.43,3.43,0,0,1,2.5.42l-.13-.1"/><rect x="221.62" y="88.7" width="2.85" height="4.38" rx="1.43" transform="translate(443.62 187.62) rotate(-178.49)"/><path class="cls-2" d="M224.53,84.6a3.36,3.36,0,0,0-2.53.17l.14-.09"/><path class="cls-4" d="M251.05,79.13a10.72,10.72,0,0,1,1,5.1,7.5,7.5,0,0,1-2,4.71,11.26,11.26,0,0,0-2.11,2.2,26.16,26.16,0,0,1-6-5.48c-2.38-3.36-3-7.64-5-11.26a35.83,35.83,0,0,1-7.09,3.4,25.12,25.12,0,0,1-8.37.87,13.66,13.66,0,0,1-5.19-1,12.31,12.31,0,0,1-2.42-1.49,9.55,9.55,0,0,1-3.07-3.53c-.82-1.86-.66-4-.48-6,.44,1.56,2.22,2.35,3.83,2.43a12.53,12.53,0,0,0,5.78-1.42c1.81-.84,3.56-1.85,5.45-2.51a15.59,15.59,0,0,1,10.67.2"/><path class="cls-5" d="M223.43,138.8c1.27,2.64,3.81,7.62,5.34,10.11a88.43,88.43,0,0,0,6.77-11.81,11.91,11.91,0,0,0-4.07-.44,78.76,78.76,0,0,1-8.27.35"/><path class="cls-5" d="M215,119.78l-.43.34a5.52,5.52,0,0,0-2.3,3.54,7.35,7.35,0,0,0,1.21,4.16c2.8,5.31,7.1,10.52,10.78,15.26a37.52,37.52,0,0,0,5-6.69c-1.8-2.36-5-5-6.44-7.55a40.15,40.15,0,0,1-4.15-9.27,3.63,3.63,0,0,1-.1-2.06A21.86,21.86,0,0,0,215,119.78Z"/><path class="cls-5" d="M242.55,119.89l.43.34a5.59,5.59,0,0,1,2.3,3.54,7.43,7.43,0,0,1-1.21,4.16c-2.8,5.31-7.1,10.53-10.78,15.27a34.79,34.79,0,0,1-4.27-6.81c1.8-2.36,4.28-4.86,5.75-7.44a40.57,40.57,0,0,0,4.15-9.27,3.62,3.62,0,0,0,.1-2.06A23.54,23.54,0,0,1,242.55,119.89Z"/><path class="cls-3" d="M223.75,99v0c-.22,3.54,1.89,6.56,4.72,6.74s5.3-2.55,5.52-6.1c0,0,0,0,0,0Z"/><path class="cls-6" d="M98.82,83.73a9.24,9.24,0,0,0-8.89,1.17c-2.34,1.63-5.17,4.2-5.87,7.1-.39,1.59-.19,3.19-.74,4.78-1.65,4.74-5.79,7.22-9.88,9.65-3.33,2-6.78,4.42-7.88,8.14-.91,3.08.66,6.61-1.28,9.3-1.56,2.17-4.47,3.11-7,3.17-3.28.09-6.53-.86-9.81-.75a15.64,15.64,0,0,0-14,10.52,20.74,20.74,0,0,1-1.22,3.53,9.62,9.62,0,0,1-3.31,3.28,21.75,21.75,0,0,1-5.24,2.5,8.26,8.26,0,0,1-3.61.48,3.66,3.66,0,0,1-2.88-2,23.41,23.41,0,0,0,2.19,15.48,43.46,43.46,0,0,0,9.81,12.45,36.43,36.43,0,0,0,9.51,6.71c7.25,3.28,14.17,1.84,21.7,1.63a70.18,70.18,0,0,0,21.2-5,35.79,35.79,0,0,0,16.64-15.2c3.6-6.62,4.8-14.24,5.93-21.69L108,114.29"/><path class="cls-6" d="M98.58,111.79c2.63,1.82,5.31,3.68,7.23,6.24s3,6,2,9c-1.23,3.67-5.11,5.93-6.41,9.58a9.73,9.73,0,0,0,.32,6.74,20.12,20.12,0,0,0,3.77,5.73,18.35,18.35,0,0,0,14.49,6.52,7.94,7.94,0,0,0,6.39-3.22,21,21,0,0,0,1.7-4c1.14-2.81,3.15-5.16,4.79-7.72s3-5.57,2.4-8.56c-.52-2.81-2.56-5-3.95-7.53a30.94,30.94,0,0,1-3.23-10.7c-.34-2.76-.67-5.51-1-8.27-.21-1.69-.78-3.3-1.08-5,0-.18-.07-.36-.1-.53a11.31,11.31,0,0,0,1.91-1.75,14.91,14.91,0,0,0,2.73-4.81,10.27,10.27,0,0,0-.36-5.78c-1.39-4.24-4.89-7.53-8.87-9.54a24.31,24.31,0,0,0-18.54-1.26,14.1,14.1,0,0,0-6.25,3.89,16.44,16.44,0,0,0-3.42,6.44"/><path class="cls-7" d="M148.58,234.26c.67-4.68,1.33-37.57,1.46-47.14,5.16,2.61,8.57,4.91,14,6.85,5,1.79,10.2,3.3,15.5,3.09s10.74-2.36,13.82-6.68c5.2-7.3,2.4-17.06-1.24-24.34-9-18-23.53-32.6-37.79-46.84L141.1,131.12c3,4.4,4.61,8.49,7.59,12.89-10.48-5-20.47-6.18-31.91-7.42a68.41,68.41,0,0,0-9.15-.34,68.41,68.41,0,0,0-9.15.34c-11.44,1.24-22.78,2.67-33.26,7.73l8.94-13.2c-4.42-4-8.51-8.43-12.93-12.41C47,133,32.14,148,23.12,166c-3.64,7.28-6.44,17-1.24,24.34,3.07,4.32,8.52,6.48,13.82,6.68s10.5-1.3,15.49-3.09c5.46-1.94,8.56-4.24,13.72-6.85.13,9.57,1.09,42.46,1.77,47.14"/><path class="cls-8" d="M147.17,140.37l5.82-3.86c2.85-1.89,5.71-3.78,8.37-5.92a7,7,0,0,0,1.78-1.85"/><path class="cls-8" d="M153.46,154.75a47,47,0,0,0,8.22-5.26,113.17,113.17,0,0,0,11.77-9.75"/><path class="cls-8" d="M160.22,167.62a1.65,1.65,0,0,0,1.22-.29A221.37,221.37,0,0,0,184.05,153"/><path class="cls-8" d="M193.34,168.64a9.65,9.65,0,0,1-2.37,2,61.56,61.56,0,0,1-12.07,6.16c-3.15,1.2-6.52,2.14-9.87,1.72a31.73,31.73,0,0,0,2.08,6.14c2.07,4.71,5,9.32,9.48,11.84"/><path class="cls-8" d="M158.69,165.22A45.35,45.35,0,0,0,157.62,191"/><path class="cls-8" d="M67.89,140.37l-5.82-3.86c-2.85-1.89-5.7-3.78-8.37-5.92a7.11,7.11,0,0,1-1.78-1.85"/><path class="cls-8" d="M61.06,154.3a40,40,0,0,1-7.68-4.81,113.17,113.17,0,0,1-11.77-9.75"/><path class="cls-8" d="M54,167.52A227.15,227.15,0,0,1,31,153"/><path class="cls-8" d="M21.86,168.69a8.81,8.81,0,0,0,2.23,1.94,61.56,61.56,0,0,0,12.07,6.16c3.16,1.2,6.52,2.14,9.87,1.72A31.06,31.06,0,0,1,44,184.65c-2.07,4.71-5,9.32-9.48,11.84"/><path class="cls-8" d="M56.37,165.22A45.27,45.27,0,0,1,57.44,191"/><path class="cls-8" d="M63.7,149.3a54.83,54.83,0,0,0,12.38,2.56c24.82,2.89,49.93,1.18,74.79-1.3h-1.44"/><path class="cls-8" d="M65.29,169.18a344.3,344.3,0,0,0,35.59,3c16.1.67,32.28.88,48.24-1.28.26,0,1.29-.25,1.3-.5"/><path class="cls-8" d="M65.29,186.74a344.3,344.3,0,0,0,35.59,3c16.1.67,32.28.88,48.24-1.28.26,0,.58-.14.59-.39s-.54-.08-.31,0"/><path class="cls-8" d="M65.43,204.26a341.91,341.91,0,0,0,35.45,3c16.1.67,32.28.88,48.24-1.27.26,0,.58-.14.59-.4s-.54-.08-.31,0"/><path class="cls-8" d="M66,221.89a334.39,334.39,0,0,0,34.93,3c16.1.67,32.28.88,48.24-1.27"/><path class="cls-2" d="M148.58,234.26c.67-4.68,1.33-37.57,1.46-47.14,5.16,2.61,8.57,4.91,14,6.85,5,1.79,10.2,3.3,15.5,3.09s10.74-2.36,13.82-6.68c5.2-7.3,2.4-17.06-1.24-24.34-9-18-23.53-32.6-37.79-46.84L141.1,131.12c3,4.4,4.61,8.49,7.59,12.89-10.48-5-20.47-6.18-31.91-7.42a68.41,68.41,0,0,0-9.15-.34,68.41,68.41,0,0,0-9.15.34c-11.44,1.24-22.78,2.67-33.26,7.73l8.94-13.2c-4.42-4-8.51-8.43-12.93-12.41C47,133,32.14,148,23.12,166c-3.64,7.28-6.44,17-1.24,24.34,3.07,4.32,8.52,6.48,13.82,6.68s10.5-1.3,15.49-3.09c5.46-1.94,8.56-4.24,13.72-6.85.13,9.57,1.09,42.46,1.77,47.14"/><path class="cls-2" d="M148.69,144s14.78,41.49,32,39.48"/><path class="cls-2" d="M65.45,144s-14.78,41.49-32,39.48"/><line class="cls-5" x1="64.91" y1="187.12" x2="64.76" y2="161.34"/><line class="cls-5" x1="150.04" y1="187.12" x2="150.8" y2="162.38"/><path class="cls-1" d="M99.91,129.2c.06,2.05.17,4.75-1.13,6.5A3.76,3.76,0,0,1,96.6,137c-2.16.69-11.1,3.33-13.31,4.19.47,1.4,3.15,2.61,4.51,3.19,8.26,3.51,16.26,3.7,25.22,3.08a57.39,57.39,0,0,0,15.91-3,6.93,6.93,0,0,0,2.72-1.54.64.64,0,0,0,.23-.55c-.06-.22-.32-.32-.54-.39a79.07,79.07,0,0,1-11.5-3.71c-1.67-.77-3.4-1.79-4.06-3.5a8.71,8.71,0,0,1-.33-5.17"/><path class="cls-1" d="M90.52,116.49s-4.19,1.21-6-2.51a4.84,4.84,0,0,1,5.71-6.76"/><path class="cls-2" d="M90.06,111.66a20.48,20.48,0,0,0-2.35,0s0,0-.06,0,0,.06,0,.05"/><path class="cls-1" d="M123.83,116.72s4.17,1.27,6-2.42a4.85,4.85,0,0,0-5.62-6.84"/><path class="cls-2" d="M124.36,111.9a20.47,20.47,0,0,1,2.35,0l.06,0s0,.06,0,0"/><path class="cls-1" d="M117.86,128.45a17.55,17.55,0,0,0,6.46-14l-.22-8.88a17.4,17.4,0,0,0-16.29-16.93v0h-.22v0c-8.93.45-17.08,7.61-17.43,16.71l-.34,8.87a17.45,17.45,0,0,0,13.33,17.61,22.33,22.33,0,0,0,4.3.39A17.41,17.41,0,0,0,117.86,128.45Z"/><path class="cls-6" d="M98.3,90.77c-.1,0,0-.17.1-.19a7.66,7.66,0,0,1,3.16-.16,3.44,3.44,0,0,1,1.41.49,3.4,3.4,0,0,1,1.17,1.52c1.1,2.48-1,5.72-3.62,6.13a17.91,17.91,0,0,0,3-.44,6,6,0,0,0,2.66-1.41,7.32,7.32,0,0,0,1.78-5,7.68,7.68,0,0,1,1.7,3.79,3.36,3.36,0,0,1-1.87,3.45c1.16,0,2.31.12,3.46.11a7.85,7.85,0,0,0,3.75-.92,5.09,5.09,0,0,0,2.42-2.93,6.1,6.1,0,0,0,.18-2,7.44,7.44,0,0,0-1-3.55,7.07,7.07,0,0,0-1.52-1.71,15.39,15.39,0,0,0-6.87-3.08"/><rect x="100.58" y="106.87" width="2.64" height="4.06" rx="1.32" transform="translate(205.48 216.2) rotate(179.11)"/><path class="cls-2" d="M107.66,108.94a1.08,1.08,0,0,0-1.38.57,1.66,1.66,0,0,0,.2,1.41,14.79,14.79,0,0,1,.77,1.27"/><path class="cls-2" d="M103,103a3.18,3.18,0,0,0-2.34.26l.13-.09"/><rect x="111.21" y="106.94" width="2.64" height="4.06" rx="1.32" transform="translate(3.26 -3.27) rotate(1.69)"/><path class="cls-2" d="M111.48,103.08a3.15,3.15,0,0,1,2.33.29l-.12-.09"/><path class="cls-3" d="M102.5,117.2v0c0,3.29,2.08,6,4.7,6s4.76-2.63,4.79-5.91a0,0,0,0,0,0,0Z"/><path class="cls-1" d="M75.54,102.89c3.25-6.22,8.17-13.35,16-13,2.74.11,5.29,1.4,7.71,2.68,1.31.7,2.73,1.54,3.15,3a1.41,1.41,0,0,1,0,.76,1.65,1.65,0,0,1-1.21,1c-3.89,1.26-8.14-1.31-12.15-.48"/><path class="cls-1" d="M141.39,102.89c-3.24-6.22-8.17-13.35-16-13-2.74.11-5.28,1.4-7.71,2.68-1.31.7-2.73,1.54-3.15,3a1.41,1.41,0,0,0,0,.76,1.65,1.65,0,0,0,1.21,1c3.89,1.26,8.14-1.31,12.15-.48"/><path class="cls-1" d="M119,97.68a9.43,9.43,0,0,0,3.28-.36c5.7-1,11.66,4,11.75,9.75,0,1.81-.17,4.13-1.85,5.17-4,2.45-8.49,3.88-12.34,6.48-.39.26,3.22,2.59,3.54,2.72,1.32.57,2.76.47,4.17.73a28.9,28.9,0,0,1,7.64,2.07,29.19,29.19,0,0,1,6.57,4.73l.87.76,10.58-9.51c-1.22-1-2.43-2.09-3.61-3.18a21.36,21.36,0,0,1-2.85-3.09,22.8,22.8,0,0,1-1.94-3.57l-2.91-6.17c-.88-1.86-1.6-4.18-2.84-5.8-1.92-2.53-4.76-6.38-8.14-6.93a8.78,8.78,0,0,0-3.55.41l-8,2c-.87.22-1.86.56-2.16,1.4C116.89,96.39,117.92,97.48,119,97.68Z"/><path class="cls-1" d="M73.43,130.45l.31-.27A18.14,18.14,0,0,0,75.16,129a29.19,29.19,0,0,1,6.57-4.73,29,29,0,0,1,7.64-2.07c1.41-.26,2.85-.16,4.18-.73.32-.13,3.92-2.46,3.54-2.72-3.86-2.6-8.39-4-12.35-6.48-1.68-1-1.88-3.36-1.85-5.17.09-5.78,6-10.73,11.75-9.75a9.43,9.43,0,0,0,3.28.36c1.09-.2,2.12-1.29,1.76-2.34-.3-.84-1.3-1.18-2.17-1.4l-8-2A8.78,8.78,0,0,0,86,91.48c-3.38.55-6.22,4.4-8.14,6.93-1.24,1.62-2,3.94-2.84,5.8l-2.9,6.17a22.85,22.85,0,0,1-2,3.57A20.81,20.81,0,0,1,67.32,117q-2,1.83-4.07,3.57C66.67,123.85,70,127.27,73.43,130.45Z"/><path class="cls-9" d="M98.24,99.52s8.47-6.9,19.11,0v9.42H98.14"/><circle class="cls-10" cx="91.63" cy="107.65" r="12.48"/><circle class="cls-10" cx="123.1" cy="107.65" r="12.48"/><circle cx="107.45" cy="100.9" r="1.22"/><path class="cls-3" d="M135.55,107a12.46,12.46,0,0,0-24.89,0Z"/><path class="cls-3" d="M104.08,107a12.47,12.47,0,0,0-24.9,0Z"/><circle cx="91.63" cy="107.65" r="8.24"/><circle cx="123.1" cy="107.65" r="8.24"/><ellipse class="cls-11" cx="125.97" cy="104.67" rx="1.69" ry="2.52" transform="translate(-34.95 135.13) rotate(-50.44)"/><ellipse class="cls-11" cx="93.93" cy="104.67" rx="1.69" ry="2.52" transform="translate(-46.59 110.44) rotate(-50.44)"/><path class="cls-3" d="M250.3,155.23s14.66,1.39,20.13,0"/><rect class="cls-12" y="234.78" width="311.83" height="1.5"/></g></g></svg>